<?xml version="1.0" encoding="UTF-8" standalone="no"?><!DOCTYPE svg PUBLIC "-//W3C//DTD SVG 1.1//EN" "http://www.w3.org/Graphics/SVG/1.1/DTD/svg11.dtd"><svg width="100%" height="100%" viewBox="0 0 400 400" version="1.1" xmlns="http://www.w3.org/2000/svg" xmlns:xlink="http://www.w3.org/1999/xlink" xml:space="preserve" xmlns:serif="http://www.serif.com/" style="fill-rule:evenodd;clip-rule:evenodd;"><path d="M400,40l0,320c0,22.077 -17.923,40 -40,40l-320,0c-22.077,0 -40,-17.923 -40,-40l0,-320c0,-22.077 17.923,-40 40,-40l320,0c22.077,0 40,17.923 40,40Z" style="fill:url(#_Linear1);"/><circle cx="340" cy="60" r="80" style="fill:#21a0db;fill-opacity:0.06;"/><circle cx="60" cy="340" r="60" style="fill:#3ecf8e;fill-opacity:0.06;"/><g><path d="M353.656,357.542c0,6.876 -5.582,12.458 -12.458,12.458l-281.738,0c-6.876,0 -12.458,-5.582 -12.458,-12.458c0,-6.876 5.582,-12.458 12.458,-12.458l281.738,0c6.876,0 12.458,5.582 12.458,12.458Z" style="fill:#fff;fill-opacity:0.07;stroke:#fff;stroke-opacity:0.15;stroke-width:0.96px;"/><circle cx="64.252" cy="357.542" r="5.75" style="fill:none;stroke:#21a0db;stroke-width:1.44px;"/><path d="M69.043,362.334l4.791,4.791" style="fill:none;fill-rule:nonzero;stroke:#21a0db;stroke-width:1.44px;stroke-linecap:round;"/><path d="M338.324,352.792l0,1.833c0,0.552 -0.448,1 -1,1l-1.833,0c-0.552,0 -1,-0.448 -1,-1l0,-1.833c0,-0.552 0.448,-1 1,-1l1.833,0c0.552,0 1,0.448 1,1Z" style="fill:#3ecf8e;fill-opacity:0.7;"/><path d="M345.99,352.792l0,1.833c0,0.552 -0.448,1 -1,1l-1.833,0c-0.552,0 -1,-0.448 -1,-1l0,-1.833c0,-0.552 0.448,-1 1,-1l1.833,0c0.552,0 1,0.448 1,1Z" style="fill:#3ecf8e;fill-opacity:0.4;"/><path d="M342.157,360.459l0,1.833c0,0.552 -0.448,1 -1,1l-1.833,0c-0.552,0 -1,-0.448 -1,-1l0,-1.833c0,-0.552 0.448,-1 1,-1l1.833,0c0.552,0 1,0.448 1,1Z" style="fill:#21a0db;fill-opacity:0.7;"/></g><g><path d="M141.001,255.266l0,50.799c0,5.519 -4.481,10 -10,10l-74.398,0c-5.519,0 -10,-4.481 -10,-10l0,-50.799c0,-5.519 4.481,-10 10,-10l74.398,0c5.519,0 10,4.481 10,10Z" style="fill:url(#_Linear2);stroke:#21a0db;stroke-opacity:0.6;stroke-width:1.18px;"/><path d="M95.769,261.033l0,0.917c0,1.104 -0.896,2 -2,2l-35.333,0c-1.104,0 -2,-0.896 -2,-2l0,-0.917c0,-1.104 0.896,-2 2,-2l35.333,0c1.104,0 2,0.896 2,2Z" style="fill:#21a0db;fill-opacity:0.8;"/><path d="M125.268,273.291c0,0.814 -0.661,1.475 -1.475,1.475l-65.882,0c-0.814,0 -1.475,-0.661 -1.475,-1.475c0,-0.814 0.661,-1.475 1.475,-1.475l65.882,0c0.814,0 1.475,0.661 1.475,1.475Z" style="fill:#fff;fill-opacity:0.3;"/><path d="M110.518,282.141c0,0.814 -0.661,1.475 -1.475,1.475l-51.132,0c-0.814,0 -1.475,-0.661 -1.475,-1.475c0,-0.814 0.661,-1.475 1.475,-1.475l51.132,0c0.814,0 1.475,0.661 1.475,1.475Z" style="fill:#fff;fill-opacity:0.2;"/><path d="M117.401,290.99c0,0.814 -0.661,1.475 -1.475,1.475l-58.016,0c-0.814,0 -1.475,-0.661 -1.475,-1.475c0,-0.814 0.661,-1.475 1.475,-1.475l58.016,0c0.814,0 1.475,0.661 1.475,1.475Z" style="fill:#fff;fill-opacity:0.2;"/><path d="M131.168,303.282c0,1.628 -1.322,2.95 -2.95,2.95l-68.832,0c-1.628,0 -2.95,-1.322 -2.95,-2.95c0,-1.628 1.322,-2.95 2.95,-2.95l68.832,0c1.628,0 2.95,1.322 2.95,2.95Z" style="fill:#fff;fill-opacity:0.08;"/><path d="M107.568,303.282c0,1.628 -1.322,2.95 -2.95,2.95l-45.233,0c-1.628,0 -2.95,-1.322 -2.95,-2.95c0,-1.628 1.322,-2.95 2.95,-2.95l45.233,0c1.628,0 2.95,1.322 2.95,2.95Z" style="fill:#3ecf8e;fill-opacity:0.85;"/><path d="M247.199,255.266l0,50.799c0,5.519 -4.481,10 -10,10l-74.398,0c-5.519,0 -10,-4.481 -10,-10l0,-50.799c0,-5.519 4.481,-10 10,-10l74.398,0c5.519,0 10,4.481 10,10Z" style="fill:url(#_Linear3);stroke:#3ecf8e;stroke-opacity:0.6;stroke-width:1.18px;"/><path d="M201.967,261.033l0,0.917c0,1.104 -0.896,2 -2,2l-35.333,0c-1.104,0 -2,-0.896 -2,-2l0,-0.917c0,-1.104 0.896,-2 2,-2l35.333,0c1.104,0 2,0.896 2,2Z" style="fill:#3ecf8e;fill-opacity:0.8;"/><path d="M226.55,273.291c0,0.814 -0.661,1.475 -1.475,1.475l-60.966,0c-0.814,0 -1.475,-0.661 -1.475,-1.475c0,-0.814 0.661,-1.475 1.475,-1.475l60.966,0c0.814,0 1.475,0.661 1.475,1.475Z" style="fill:#fff;fill-opacity:0.3;"/><path d="M211.8,282.141c0,0.814 -0.661,1.475 -1.475,1.475l-46.216,0c-0.814,0 -1.475,-0.661 -1.475,-1.475c0,-0.814 0.661,-1.475 1.475,-1.475l46.216,0c0.814,0 1.475,0.661 1.475,1.475Z" style="fill:#fff;fill-opacity:0.2;"/><path d="M219.666,290.99c0,0.814 -0.661,1.475 -1.475,1.475l-54.082,0c-0.814,0 -1.475,-0.661 -1.475,-1.475c0,-0.814 0.661,-1.475 1.475,-1.475l54.082,0c0.814,0 1.475,0.661 1.475,1.475Z" style="fill:#fff;fill-opacity:0.2;"/><path d="M237.366,303.282c0,1.628 -1.322,2.95 -2.95,2.95l-68.832,0c-1.628,0 -2.95,-1.322 -2.95,-2.95c0,-1.628 1.322,-2.95 2.95,-2.95l68.832,0c1.628,0 2.95,1.322 2.95,2.95Z" style="fill:#fff;fill-opacity:0.08;"/><path d="M197.05,303.282c0,1.628 -1.322,2.95 -2.95,2.95l-28.516,0c-1.628,0 -2.95,-1.322 -2.95,-2.95c0,-1.628 1.322,-2.95 2.95,-2.95l28.516,0c1.628,0 2.95,1.322 2.95,2.95Z" style="fill:#21a0db;fill-opacity:0.85;"/><path d="M353.397,255.266l0,50.799c0,5.519 -4.481,10 -10,10l-74.398,0c-5.519,0 -10,-4.481 -10,-10l0,-50.799c0,-5.519 4.481,-10 10,-10l74.398,0c5.519,0 10,4.481 10,10Z" style="fill:url(#_Linear4);stroke:#21a0db;stroke-opacity:0.4;stroke-width:1.18px;"/><path d="M308.165,261.033l0,0.917c0,1.104 -0.896,2 -2,2l-35.333,0c-1.104,0 -2,-0.896 -2,-2l0,-0.917c0,-1.104 0.896,-2 2,-2l35.333,0c1.104,0 2,0.896 2,2Z" style="fill:#21a0db;fill-opacity:0.6;"/><path d="M327.831,273.291c0,0.814 -0.661,1.475 -1.475,1.475l-56.049,0c-0.814,0 -1.475,-0.661 -1.475,-1.475c0,-0.814 0.661,-1.475 1.475,-1.475l56.049,0c0.814,0 1.475,0.661 1.475,1.475Z" style="fill:#fff;fill-opacity:0.3;"/><path d="M337.664,282.141c0,0.814 -0.661,1.475 -1.475,1.475l-65.882,0c-0.814,0 -1.475,-0.661 -1.475,-1.475c0,-0.814 0.661,-1.475 1.475,-1.475l65.882,0c0.814,0 1.475,0.661 1.475,1.475Z" style="fill:#fff;fill-opacity:0.2;"/><path d="M313.081,290.99c0,0.814 -0.661,1.475 -1.475,1.475l-41.299,0c-0.814,0 -1.475,-0.661 -1.475,-1.475c0,-0.814 0.661,-1.475 1.475,-1.475l41.299,0c0.814,0 1.475,0.661 1.475,1.475Z" style="fill:#fff;fill-opacity:0.2;"/><path d="M343.564,303.282c0,1.628 -1.322,2.95 -2.95,2.95l-68.832,0c-1.628,0 -2.95,-1.322 -2.95,-2.95c0,-1.628 1.322,-2.95 2.95,-2.95l68.832,0c1.628,0 2.95,1.322 2.95,2.95Z" style="fill:#fff;fill-opacity:0.08;"/><path d="M329.798,303.282c0,1.628 -1.322,2.95 -2.95,2.95l-55.066,0c-1.628,0 -2.95,-1.322 -2.95,-2.95c0,-1.628 1.322,-2.95 2.95,-2.95l55.066,0c1.628,0 2.95,1.322 2.95,2.95Z" style="fill:#3ecf8e;fill-opacity:0.65;"/></g><g><g><path d="M353.638,112.247l0,98c0,3.311 -2.689,6 -6,6l-78,0c-3.311,0 -6,-2.689 -6,-6l0,-98c0,-3.311 2.689,-6 6,-6l78,0c3.311,0 6,2.689 6,6Z" style="fill:url(#_Linear5);"/><path d="M353.638,112.247l0,98c0,3.311 -2.689,6 -6,6l-78,0c-3.311,0 -6,-2.689 -6,-6l0,-98c0,-3.311 2.689,-6 6,-6l78,0c3.311,0 6,2.689 6,6Z" style="fill:url(#_Linear6);"/><path d="M275.638,110.247l0,102c0,2.208 -1.792,4 -4,4l-4,0c-2.208,0 -4,-1.792 -4,-4l0,-102c0,-2.208 1.792,-4 4,-4l4,0c2.208,0 4,1.792 4,4Z" style="fill:#1a7fb5;"/><path d="M337.638,130.247l0,1c0,1.104 -0.896,2 -2,2l-50,0c-1.104,0 -2,-0.896 -2,-2l0,-1c0,-1.104 0.896,-2 2,-2l50,0c1.104,0 2,0.896 2,2Z" style="fill:#fff;fill-opacity:0.85;"/><path d="M323.638,144.247c0,1.104 -0.896,2 -2,2l-36,0c-1.104,0 -2,-0.896 -2,-2c0,-1.104 0.896,-2 2,-2l36,0c1.104,0 2,0.896 2,2Z" style="fill:#fff;fill-opacity:0.55;"/><path d="M331.638,158.247c0,1.104 -0.896,2 -2,2l-44,0c-1.104,0 -2,-0.896 -2,-2c0,-1.104 0.896,-2 2,-2l44,0c1.104,0 2,0.896 2,2Z" style="fill:#fff;fill-opacity:0.55;"/><path d="M317.638,172.247c0,1.104 -0.896,2 -2,2l-30,0c-1.104,0 -2,-0.896 -2,-2c0,-1.104 0.896,-2 2,-2l30,0c1.104,0 2,0.896 2,2Z" style="fill:#fff;fill-opacity:0.55;"/></g><g><path d="M185.682,150.247l28,0" style="fill:none;fill-rule:nonzero;stroke:#21a0db;stroke-width:3px;stroke-linecap:round;"/><path d="M211.682,144.247l12,6l-12,6l0,-12Z" style="fill:#21a0db;fill-rule:nonzero;"/><path d="M185.682,172.247l28,0" style="fill:none;fill-rule:nonzero;stroke:url(#_Linear7);stroke-width:3px;stroke-linecap:round;"/><path d="M187.682,166.247l-12,6l12,6l0,-12Z" style="fill:#3ecf8e;fill-rule:nonzero;"/></g><g><path d="M135.726,110.636l0,101.222c0,2.208 -1.792,4 -4,4l-81.364,0c-2.208,0 -4,-1.792 -4,-4l0,-101.222c0,-2.208 1.792,-4 4,-4l81.364,0c2.208,0 4,1.792 4,4Z" style="fill:none;stroke:#21a0db;stroke-width:5.46px;"/><path d="M62.256,131.459l58.576,0" style="fill:none;fill-rule:nonzero;stroke:#21a0db;stroke-width:4.43px;stroke-linecap:round;"/><path d="M62.256,148.835l58.576,0" style="fill:none;fill-rule:nonzero;stroke:#21a0db;stroke-width:4.43px;stroke-linecap:round;"/><path d="M62.256,166.211l38.717,0" style="fill:none;fill-rule:nonzero;stroke:#21a0db;stroke-width:4.41px;stroke-linecap:round;"/><path d="M61.256,116.565l0,99.293" style="fill:none;fill-rule:nonzero;stroke:#21a0db;stroke-width:3.48px;stroke-linecap:round;"/></g></g><g transform="matrix(1.790647,0,0,1.790647,199.787806,49.830014)"><text x="-37.298px" y="0px" style="font-family:'Helvetica-Bold', 'Helvetica';font-weight:700;font-size:15px;fill:url(#_Linear8);">T<tspan x="-27.835px -16.702px -5.57px -1.102px 10.03px 14.498px 25.63px " y="0px 0px 0px 0px 0px 0px 0px ">RAINING</tspan></text><g transform="matrix(15,0,0,15,94.640918,15)"></g><text x="-94.641px" y="15px" style="font-family:'Helvetica-Bold', 'Helvetica';font-weight:700;font-size:15px;fill:url(#_Linear9);">T<tspan x="-85.178px -74.046px -62.913px -51.781px -41.476px -32.013px -21.987px -12.524px -8.057px 3.911px 15.043px 19.511px 28.973px 40.106px 51.238px 62.371px 73.504px 83.808px " y="15px 15px 15px 15px 15px 15px 15px 15px 15px 15px 15px 15px 15px 15px 15px 15px 15px 15px ">RANSLATION TRACKER</tspan></text></g><defs><linearGradient id="_Linear1" x1="0" y1="0" x2="1" y2="0" gradientUnits="userSpaceOnUse" gradientTransform="matrix(400,400,-400,400,0,0)"><stop offset="0" style="stop-color:#1e3a5f;stop-opacity:1"/><stop offset="1" style="stop-color:#0d2137;stop-opacity:1"/></linearGradient><linearGradient id="_Linear2" x1="0" y1="0" x2="1" y2="0" gradientUnits="userSpaceOnUse" gradientTransform="matrix(94.39834,70.798755,-70.798755,94.39834,46.602698,245.266215)"><stop offset="0" style="stop-color:#fff;stop-opacity:0.12"/><stop offset="1" style="stop-color:#fff;stop-opacity:0.04"/></linearGradient><linearGradient id="_Linear3" x1="0" y1="0" x2="1" y2="0" gradientUnits="userSpaceOnUse" gradientTransform="matrix(94.39834,70.798755,-70.798755,94.39834,152.80083,245.266215)"><stop offset="0" style="stop-color:#fff;stop-opacity:0.12"/><stop offset="1" style="stop-color:#fff;stop-opacity:0.04"/></linearGradient><linearGradient id="_Linear4" x1="0" y1="0" x2="1" y2="0" gradientUnits="userSpaceOnUse" gradientTransform="matrix(94.39834,70.798755,-70.798755,94.39834,258.998962,245.266215)"><stop offset="0" style="stop-color:#fff;stop-opacity:0.12"/><stop offset="1" style="stop-color:#fff;stop-opacity:0.04"/></linearGradient><linearGradient id="_Linear5" x1="0" y1="0" x2="1" y2="0" gradientUnits="userSpaceOnUse" gradientTransform="matrix(90,0,0,90,263.637914,106.246824)"><stop offset="0" style="stop-color:#21a0db;stop-opacity:0.9"/><stop offset="1" style="stop-color:#3ecf8e;stop-opacity:0.9"/></linearGradient><linearGradient id="_Linear6" x1="0" y1="0" x2="1" y2="0" gradientUnits="userSpaceOnUse" gradientTransform="matrix(90,0,0,90,263.637914,106.246824)"><stop offset="0" style="stop-color:#21a0db;stop-opacity:0.9"/><stop offset="1" style="stop-color:#3ecf8e;stop-opacity:0.9"/></linearGradient><linearGradient id="_Linear7" x1="0" y1="0" x2="1" y2="0" gradientUnits="userSpaceOnUse" gradientTransform="matrix(0.000002,0,0,0.000002,185.68177,172.246824)"><stop offset="0" style="stop-color:#21a0db;stop-opacity:1"/><stop offset="1" style="stop-color:#3ecf8e;stop-opacity:1"/></linearGradient><linearGradient id="_Linear8" x1="0" y1="0" x2="1" y2="0" gradientUnits="userSpaceOnUse" gradientTransform="matrix(73.774805,0,0,73.774805,-37.037402,-10.759277)"><stop offset="0" style="stop-color:#21a0db;stop-opacity:1"/><stop offset="1" style="stop-color:#3ecf8e;stop-opacity:1"/></linearGradient><linearGradient id="_Linear9" x1="0" y1="0" x2="1" y2="0" gradientUnits="userSpaceOnUse" gradientTransform="matrix(73.774805,0,0,73.774805,-37.037402,-10.759277)"><stop offset="0" style="stop-color:#21a0db;stop-opacity:1"/><stop offset="1" style="stop-color:#3ecf8e;stop-opacity:1"/></linearGradient></defs></svg>